# xmcd
#
# Track frame offsets: 
#        150
#        3665
#        23133
#        35117
#        61086
#        83352
#        107188
#        125775
#        148488
#        150890
#        174436
#        194456
#        199837
#        218488
#        238399
#        261703
#        280510
#        298683
#        318676
#        320941
#
# Disc length: 4627 seconds
#
# Revision: 27
# Processed by: cddbd v1.5.2PL0 Copyright (c) Steve Scherf et al.
# Submitted via: ExactAudioCopy v1.3
#
DISCID=37121114
DTITLE=EMINEM - ENCORE
DYEAR=2004
DGENRE=Hip-Hop
TTITLE0=Curtains Up
TTITLE1=Evil Deeds
TTITLE2=Never Enough
TTITLE3=Yellow Brick Road
TTITLE4=Like Toy Soldiers
TTITLE5=Mosh
TTITLE6=Puke
TTITLE7=My 1st Single
TTITLE8=Paul (skit)
TTITLE9=Rain Man
TTITLE10=Big Weenie
TTITLE11=Em Calls Paul (skit)
TTITLE12=Just Lose It
TTITLE13=Ass Like That
TTITLE14=Spend Some Time
TTITLE15=Mockingbird
TTITLE16=Crazy In Love
TTITLE17=One Shot 2 Shot
TTITLE18=Final Thought (skit)
TTITLE19=Encore
EXTD=YEAR: 2004
EXTT0=
EXTT1=
EXTT2=
EXTT3=
EXTT4=
EXTT5=
EXTT6=
EXTT7=
EXTT8=
EXTT9=
EXTT10=
EXTT11=
EXTT12=
EXTT13=
EXTT14=
EXTT15=
EXTT16=
EXTT17=
EXTT18=
EXTT19=
PLAYORDER=
